<?xml version="1.0" encoding="utf-8"?>
<!-- Generator: Adobe Illustrator 16.0.2, SVG Export Plug-In . SVG Version: 6.00 Build 0)  -->
<!DOCTYPE svg PUBLIC "-//W3C//DTD SVG 1.1//EN" "http://www.w3.org/Graphics/SVG/1.1/DTD/svg11.dtd">
<svg version="1.1" id="Layer_1" xmlns="http://www.w3.org/2000/svg" xmlns:xlink="http://www.w3.org/1999/xlink" x="0px" y="0px"
	 width="2312px" height="412px" viewBox="0 0 2312 412" enable-background="new 0 0 2312 412" xml:space="preserve">
<path fill="#7140FF" d="M0,0h2312v412H0V0z"/>
<linearGradient id="SVGID_1_" gradientUnits="userSpaceOnUse" x1="1186.625" y1="136.4019" x2="1125.2749" y2="1035.0503" gradientTransform="matrix(1 0 0 1 0 -379)">
	<stop  offset="0" style="stop-color:#00A2A9"/>
	<stop  offset="0.5104" style="stop-color:#003F2E"/>
	<stop  offset="1" style="stop-color:#7A2C9E"/>
</linearGradient>
<rect fill="url(#SVGID_1_)" width="2312" height="412"/>
<g>
	<g>
		<g>
			<path fill="#F2F2F2" d="M521.833,216.689c-1.683,3.342-3.471,6.679-5.375,9.988c-1.927,3.355-3.923,6.582-5.979,9.686
				c5.411-0.932,10.76-2.223,16.005-3.858C525.281,227.141,523.727,221.855,521.833,216.689z"/>
		</g>
	</g>
	<g>
		<g>
			<path fill="#F2F2F2" d="M446.575,226.68c-1.937-3.314-3.72-6.662-5.379-10.009c-1.896,5.172-3.448,10.464-4.651,15.834
				c5.246,1.632,10.593,2.918,16.01,3.851C450.512,233.256,448.516,229.988,446.575,226.68z"/>
		</g>
	</g>
	<g>
		<g>
			<path fill="#F2F2F2" d="M510.438,176.585c2.068,3.102,4.069,6.333,6.011,9.689l0.006,0.009c1.931,3.31,3.719,6.652,5.384,9.999
				c1.89-5.172,3.439-10.459,4.646-15.834C521.224,178.812,515.863,177.516,510.438,176.585z"/>
		</g>
	</g>
	<g>
		<g>
			<path fill="#F2F2F2" d="M519.888,140.025c-2.194-1.212-4.675-1.821-7.177-1.761h-0.01c-6.882,0-15.659,3.757-25.007,10.985
				c5.955,5.601,11.419,11.699,16.333,18.231c8.104,0.986,16.104,2.669,23.923,5.02c0.144-1.019,0.263-2.038,0.364-3.042
				C529.813,154.708,526.737,143.98,519.888,140.025z"/>
		</g>
	</g>
	<g>
		<g>
			<path fill="#F2F2F2" d="M436.559,180.503c1.198,5.338,2.743,10.598,4.624,15.738c1.683-3.337,3.443-6.633,5.365-9.966
				c1.933-3.342,3.938-6.55,5.979-9.644C447.128,177.576,441.791,178.867,436.559,180.503z"/>
		</g>
	</g>
	<g>
		<g>
			<path fill="#F2F2F2" d="M534.173,183.214c-1.885,7.956-4.438,15.737-7.633,23.265c3.198,7.519,5.752,15.3,7.638,23.251
				l-0.014,0.01c15.244-6.251,24.076-14.917,24.076-23.261C558.24,198.131,549.38,189.464,534.173,183.214z"/>
		</g>
	</g>
	<g>
		<g>
			<path fill="#F2F2F2" d="M528.31,243.49h0.019c-0.102-1.006-0.221-2.016-0.364-3.043c-7.817,2.352-15.825,4.033-23.929,5.021
				c-4.909,6.531-10.372,12.636-16.323,18.24c13.028,10.072,24.943,13.405,32.171,9.214
				C526.729,268.968,529.804,258.24,528.31,243.49z"/>
		</g>
	</g>
	<g>
		<g>
			<path fill="#F2F2F2" d="M481.484,154.458c-4.047,3.734-7.842,7.73-11.363,11.967c3.734-0.24,7.518-0.36,11.363-0.36
				c3.876,0,7.675,0.129,11.395,0.36C489.349,162.189,485.541,158.192,481.484,154.458z"/>
		</g>
	</g>
	<g>
		<g>
			<path fill="#F2F2F2" d="M481.521,91.458c-63.524,0-115.021,51.497-115.021,115.021S417.997,321.5,481.521,321.5
				c63.523,0,115.021-51.497,115.021-115.021S545.045,91.458,481.521,91.458z M535.699,237.77c0.249,1.66,0.474,3.301,0.641,4.908
				c1.854,18.319-2.563,31.545-12.428,37.242c-3.388,1.923-7.233,2.904-11.127,2.85c-9.359,0-20.273-4.918-31.269-13.715
				c-11.003,8.797-21.909,13.715-31.254,13.715c-3.898,0.056-7.738-0.927-11.132-2.85c-9.864-5.697-14.281-18.923-12.423-37.242
				c0.161-1.607,0.382-3.248,0.641-4.908c-18.803-7.356-30.607-18.539-30.607-31.291c0-11.395,9.237-21.84,26.025-29.387
				c1.476-0.664,3.016-1.3,4.578-1.899c-0.254-1.66-0.475-3.305-0.636-4.914c-1.858-18.324,2.559-31.548,12.423-37.242
				c11.036-6.375,26.621-1.747,42.386,10.865c15.76-12.612,31.352-17.24,42.387-10.865c9.859,5.693,14.275,18.918,12.422,37.242
				c-0.161,1.609-0.393,3.245-0.642,4.905c18.8,7.362,30.609,18.54,30.609,31.295h0.009
				C566.302,219.225,554.497,230.426,535.699,237.77z"/>
		</g>
	</g>
	<g>
		<g>
			<path fill="#F2F2F2" d="M481.521,246.883c-3.845,0-7.644-0.129-11.363-0.359c3.521,4.236,7.315,8.232,11.363,11.967
				c4.057-3.733,7.858-7.73,11.395-11.967C489.192,246.754,485.366,246.883,481.521,246.883z"/>
		</g>
	</g>
	<g>
		<g>
			<path fill="#F2F2F2" d="M450.337,138.27c-2.503-0.056-4.979,0.553-7.178,1.761c-6.841,3.955-9.935,14.691-8.422,29.433h-0.019
				c0.098,1.005,0.222,2.019,0.359,3.038c7.823-2.337,15.825-4.011,23.929-5.002c4.914-6.537,10.381-12.64,16.341-18.24
				C466,142.031,457.224,138.27,450.337,138.27z"/>
		</g>
	</g>
	<g>
		<g>
			<path fill="#F2F2F2" d="M428.893,183.26c-0.954,0.401-1.895,0.797-2.815,1.198c-13.488,6.085-21.265,14.11-21.265,22.021
				c0,8.344,8.836,17.01,24.075,23.261c1.881-7.956,4.436-15.737,7.635-23.261C433.327,198.97,430.778,191.202,428.893,183.26z"/>
		</g>
	</g>
	<g>
		<g>
			<path fill="#F2F2F2" d="M459.026,245.468c-8.104-0.987-16.111-2.669-23.93-5.021c-0.138,1.027-0.263,2.037-0.359,3.043
				c-1.513,14.744,1.581,25.478,8.422,29.432h0.019c7.232,4.178,19.145,0.858,32.176-9.214
				C469.402,258.104,463.94,251.999,459.026,245.468z"/>
		</g>
	</g>
</g>
<g enable-background="new    ">
	<path fill="#F2F2F2" d="M790.154,166.789H775.96v24.445h-8.01v-60.43h20.005c6.807,0,12.042,1.55,15.709,4.648
		c3.666,3.1,5.5,7.609,5.5,13.53c0,3.764-1.017,7.042-3.05,9.837c-2.034,2.795-4.863,4.884-8.488,6.267l14.194,25.649v0.498h-8.55
		L790.154,166.789z M775.96,160.272h12.244c3.957,0,7.104-1.025,9.442-3.076c2.337-2.052,3.507-4.796,3.507-8.233
		c0-3.742-1.114-6.61-3.341-8.606c-2.228-1.996-5.444-3.008-9.65-3.036H775.96V160.272z"/>
	<path fill="#F2F2F2" d="M837.759,192.064c-6.087,0-11.04-1.999-14.858-5.997s-5.728-9.345-5.728-16.042v-1.41
		c0-4.455,0.851-8.433,2.552-11.933c1.702-3.5,4.081-6.239,7.139-8.218c3.057-1.979,6.371-2.968,9.94-2.968
		c5.838,0,10.376,1.924,13.613,5.769c3.237,3.847,4.856,9.354,4.856,16.52v3.195h-30.422c0.11,4.428,1.404,8.004,3.881,10.729
		c2.476,2.726,5.624,4.088,9.442,4.088c2.711,0,5.008-0.553,6.89-1.66c1.881-1.105,3.528-2.572,4.939-4.398l4.69,3.652
		C850.93,189.174,845.285,192.064,837.759,192.064z M836.805,151.806c-3.099,0-5.7,1.128-7.803,3.383
		c-2.103,2.255-3.403,5.416-3.901,9.483h22.495v-0.581c-0.222-3.901-1.273-6.924-3.154-9.068
		C842.56,152.878,840.014,151.806,836.805,151.806z"/>
	<path fill="#F2F2F2" d="M891.88,191.234c-0.443-0.885-0.803-2.462-1.079-4.731c-3.569,3.708-7.831,5.562-12.783,5.562
		c-4.427,0-8.059-1.252-10.895-3.756c-2.837-2.504-4.254-5.679-4.254-9.525c0-4.676,1.777-8.308,5.333-10.895
		c3.555-2.587,8.556-3.881,15.003-3.881h7.471v-3.527c0-2.684-0.803-4.821-2.407-6.413c-1.605-1.591-3.971-2.386-7.097-2.386
		c-2.739,0-5.036,0.691-6.89,2.074c-1.854,1.385-2.781,3.059-2.781,5.022h-7.72c0-2.241,0.795-4.406,2.386-6.495
		c1.591-2.089,3.749-3.742,6.475-4.96c2.725-1.217,5.721-1.826,8.986-1.826c5.174,0,9.228,1.294,12.161,3.881
		c2.933,2.587,4.455,6.149,4.565,10.687v20.67c0,4.123,0.525,7.401,1.577,9.836v0.664H891.88z M879.139,185.383
		c2.407,0,4.69-0.623,6.848-1.868s3.721-2.864,4.69-4.856v-9.213h-6.018c-9.408,0-14.111,2.753-14.111,8.259
		c0,2.407,0.802,4.289,2.407,5.645C874.559,184.705,876.621,185.383,879.139,185.383z"/>
	<path fill="#F2F2F2" d="M928.404,185.797c2.739,0,5.132-0.83,7.18-2.49c2.047-1.66,3.182-3.734,3.403-6.225h7.263
		c-0.139,2.572-1.024,5.021-2.656,7.346c-1.633,2.324-3.812,4.179-6.537,5.562c-2.726,1.383-5.61,2.075-8.653,2.075
		c-6.115,0-10.978-2.04-14.589-6.122c-3.61-4.081-5.416-9.663-5.416-16.747v-1.286c0-4.371,0.802-8.259,2.407-11.663
		c1.604-3.402,3.908-6.045,6.91-7.927c3.002-1.881,6.551-2.822,10.646-2.822c5.036,0,9.22,1.509,12.555,4.524
		c3.333,3.016,5.111,6.931,5.333,11.745h-7.263c-0.222-2.905-1.322-5.292-3.299-7.159c-1.979-1.868-4.42-2.802-7.326-2.802
		c-3.901,0-6.925,1.404-9.069,4.213c-2.145,2.809-3.216,6.868-3.216,12.181v1.453c0,5.175,1.065,9.159,3.196,11.953
		C921.403,184.4,924.447,185.797,928.404,185.797z"/>
	<path fill="#F2F2F2" d="M965.301,135.453v10.874h8.384v5.935h-8.384v27.885c0,1.801,0.374,3.151,1.121,4.052
		s2.02,1.351,3.818,1.351c0.885,0,2.103-0.166,3.652-0.498v6.188c-2.02,0.55-3.984,0.825-5.894,0.825
		c-3.431,0-6.018-1.037-7.761-3.113c-1.743-2.074-2.615-5.021-2.615-8.84v-27.85h-8.176v-5.935h8.176v-10.874H965.301z"/>
	<path fill="#F2F2F2" d="M1049.512,183.307c-2.048,2.934-4.905,5.126-8.57,6.579c-3.667,1.452-7.935,2.179-12.804,2.179
		c-4.925,0-9.297-1.155-13.115-3.466c-3.818-2.31-6.772-5.596-8.861-9.856c-2.09-4.261-3.162-9.2-3.217-14.817v-5.271
		c0-9.104,2.123-16.159,6.371-21.168c4.247-5.007,10.216-7.512,17.909-7.512c6.309,0,11.386,1.612,15.232,4.835
		c3.846,3.224,6.198,7.797,7.056,13.718h-7.969c-1.494-8.024-6.253-12.037-14.277-12.037c-5.34,0-9.387,1.877-12.14,5.63
		c-2.754,3.752-4.144,9.187-4.171,16.304v4.942c0,6.785,1.549,12.179,4.648,16.18c3.099,4.002,7.291,6.003,12.576,6.003
		c2.988,0,5.603-0.331,7.844-0.994s4.095-1.78,5.562-3.354V167.66h-13.987v-6.516h21.914V183.307z"/>
	<path fill="#F2F2F2" d="M1061.631,134.416c0-1.246,0.38-2.297,1.141-3.154c0.761-0.857,1.889-1.287,3.383-1.287
		c1.494,0,2.628,0.43,3.404,1.287c0.773,0.857,1.162,1.908,1.162,3.154c0,1.244-0.389,2.282-1.162,3.112
		c-0.775,0.83-1.91,1.245-3.404,1.245c-1.494,0-2.622-0.415-3.383-1.245C1062.011,136.698,1061.631,135.66,1061.631,134.416z
		 M1069.932,191.234h-7.678v-44.907h7.678V191.234z"/>
	<path fill="#F2F2F2" d="M1092.635,135.453v10.874h8.383v5.935h-8.383v27.885c0,1.801,0.373,3.151,1.12,4.052
		s2.02,1.351,3.818,1.351c0.885,0,2.103-0.166,3.652-0.498v6.188c-2.021,0.55-3.984,0.825-5.894,0.825
		c-3.432,0-6.018-1.037-7.762-3.113c-1.742-2.074-2.614-5.021-2.614-8.84v-27.85h-8.177v-5.935h8.177v-10.874H1092.635z"/>
	<path fill="#F2F2F2" d="M1157.629,191.234h-8.009v-27.932h-30.465v27.932h-7.969v-60.43h7.969v25.981h30.465v-25.981h8.009V191.234
		z"/>
	<path fill="#F2F2F2" d="M1198.303,186.793c-2.988,3.515-7.373,5.271-13.156,5.271c-4.787,0-8.432-1.391-10.936-4.171
		c-2.506-2.781-3.771-6.896-3.799-12.348v-29.219h7.678v29.011c0,6.807,2.768,10.211,8.301,10.211c5.867,0,9.768-2.186,11.705-6.559
		v-32.663h7.678v44.907h-7.305L1198.303,186.793z"/>
	<path fill="#F2F2F2" d="M1255.455,169.279c0,6.862-1.578,12.375-4.732,16.539s-7.387,6.246-12.699,6.246
		c-5.674,0-10.059-2.006-13.156-6.018l-0.375,5.188h-7.055v-63.75h7.678v23.781c3.098-3.845,7.373-5.769,12.824-5.769
		s9.732,2.062,12.846,6.185s4.67,9.768,4.67,16.934V169.279z M1247.777,168.407c0-5.229-1.012-9.269-3.031-12.119
		c-2.02-2.85-4.926-4.274-8.715-4.274c-5.064,0-8.703,2.352-10.916,7.055v19.424c2.352,4.705,6.018,7.057,10.998,7.057
		c3.68,0,6.543-1.425,8.592-4.275C1246.752,178.424,1247.777,174.135,1247.777,168.407z"/>
	<path fill="#F2F2F2" d="M1295.34,167.577v23.657h-7.969v-60.43h22.287c6.613,0,11.795,1.688,15.543,5.063
		c3.75,3.376,5.625,7.845,5.625,13.405c0,5.867-1.834,10.384-5.5,13.552s-8.916,4.752-15.75,4.752H1295.34z M1295.34,161.061h14.318
		c4.262,0,7.525-1.004,9.795-3.014c2.27-2.009,3.404-4.913,3.404-8.711c0-3.603-1.135-6.485-3.404-8.647s-5.381-3.284-9.338-3.368
		h-14.775V161.061z"/>
	<path fill="#F2F2F2" d="M1367.059,191.234c-0.443-0.885-0.803-2.462-1.078-4.731c-3.57,3.708-7.832,5.562-12.783,5.562
		c-4.428,0-8.059-1.252-10.895-3.756c-2.838-2.504-4.256-5.679-4.256-9.525c0-4.676,1.779-8.308,5.334-10.895
		s8.557-3.881,15.004-3.881h7.471v-3.527c0-2.684-0.803-4.821-2.408-6.413c-1.604-1.591-3.971-2.386-7.096-2.386
		c-2.74,0-5.037,0.691-6.891,2.074c-1.854,1.385-2.781,3.059-2.781,5.022h-7.719c0-2.241,0.795-4.406,2.387-6.495
		c1.59-2.089,3.748-3.742,6.475-4.96c2.725-1.217,5.721-1.826,8.984-1.826c5.174,0,9.229,1.294,12.162,3.881
		c2.932,2.587,4.453,6.149,4.564,10.687v20.67c0,4.123,0.525,7.401,1.578,9.836v0.664H1367.059z M1354.316,185.383
		c2.408,0,4.691-0.623,6.85-1.868s3.721-2.864,4.689-4.856v-9.213h-6.018c-9.408,0-14.111,2.753-14.111,8.259
		c0,2.407,0.801,4.289,2.406,5.645C1349.738,184.705,1351.799,185.383,1354.316,185.383z"/>
	<path fill="#F2F2F2" d="M1383.742,168.407c0-7,1.619-12.568,4.855-16.705c3.238-4.137,7.527-6.205,12.867-6.205
		c5.479,0,9.754,1.938,12.824,5.811l0.373-4.98h7.016v43.828c0,5.811-1.723,10.39-5.168,13.737s-8.072,5.022-13.883,5.022
		c-3.238,0-6.406-0.692-9.504-2.075c-3.1-1.384-5.465-3.279-7.098-5.686l3.984-4.607c3.293,4.067,7.318,6.102,12.078,6.102
		c3.734,0,6.646-1.053,8.736-3.154c2.088-2.104,3.133-5.064,3.133-8.883v-3.859c-3.07,3.542-7.264,5.313-12.576,5.313
		c-5.256,0-9.51-2.117-12.762-6.35C1385.367,181.48,1383.742,175.712,1383.742,168.407z M1391.463,169.279
		c0,5.063,1.037,9.041,3.111,11.932c2.076,2.892,4.98,4.338,8.717,4.338c4.842,0,8.396-2.2,10.666-6.6v-20.503
		c-2.352-4.288-5.879-6.433-10.584-6.433c-3.734,0-6.654,1.452-8.756,4.357C1392.514,159.276,1391.463,163.579,1391.463,169.279z"/>
	<path fill="#F2F2F2" d="M1451.893,192.064c-6.088,0-11.039-1.999-14.857-5.997s-5.729-9.345-5.729-16.042v-1.41
		c0-4.455,0.852-8.433,2.553-11.933s4.08-6.239,7.139-8.218c3.057-1.979,6.371-2.968,9.939-2.968c5.838,0,10.377,1.924,13.613,5.769
		c3.238,3.847,4.857,9.354,4.857,16.52v3.195h-30.424c0.111,4.428,1.404,8.004,3.881,10.729c2.477,2.726,5.625,4.088,9.443,4.088
		c2.711,0,5.006-0.553,6.889-1.66c1.881-1.105,3.527-2.572,4.939-4.398l4.689,3.652
		C1465.063,189.174,1459.418,192.064,1451.893,192.064z M1450.938,151.806c-3.1,0-5.699,1.128-7.803,3.383s-3.402,5.416-3.9,9.483
		h22.494v-0.581c-0.221-3.901-1.273-6.924-3.154-9.068S1454.146,151.806,1450.938,151.806z"/>
	<path fill="#F2F2F2" d="M1504.438,179.322c0-2.074-0.783-3.687-2.346-4.835c-1.563-1.147-4.289-2.138-8.176-2.968
		c-3.889-0.83-6.973-1.826-9.256-2.988s-3.971-2.545-5.063-4.15c-1.094-1.604-1.641-3.513-1.641-5.727
		c0-3.68,1.557-6.793,4.67-9.339c3.113-2.545,7.09-3.818,11.932-3.818c5.092,0,9.221,1.314,12.389,3.942
		c3.168,2.63,4.752,5.991,4.752,10.086h-7.719c0-2.103-0.893-3.915-2.678-5.438c-1.783-1.521-4.033-2.282-6.744-2.282
		c-2.795,0-4.98,0.609-6.557,1.826c-1.578,1.218-2.367,2.809-2.367,4.772c0,1.854,0.734,3.252,2.201,4.192
		c1.465,0.941,4.115,1.841,7.947,2.698s6.938,1.882,9.318,3.07c2.379,1.19,4.143,2.622,5.291,4.296
		c1.148,1.675,1.723,3.715,1.723,6.122c0,4.013-1.605,7.229-4.814,9.649c-3.211,2.422-7.375,3.632-12.492,3.632
		c-3.598,0-6.779-0.637-9.547-1.909s-4.932-3.051-6.494-5.333c-1.564-2.283-2.346-4.752-2.346-7.408h7.678
		c0.139,2.572,1.17,4.613,3.092,6.121c1.924,1.509,4.463,2.262,7.617,2.262c2.904,0,5.236-0.587,6.992-1.764
		C1503.559,182.857,1504.438,181.288,1504.438,179.322z"/>
	<path fill="#F2F2F2" d="M1544.363,191.234v-60.43h19.756c6.559,0,11.49,1.356,14.797,4.067c3.305,2.712,4.959,6.724,4.959,12.036
		c0,2.822-0.803,5.319-2.406,7.491c-1.605,2.173-3.793,3.854-6.559,5.043c3.264,0.913,5.846,2.649,7.74,5.209
		s2.844,5.61,2.844,9.151c0,5.424-1.758,9.685-5.271,12.783c-3.514,3.1-8.48,4.648-14.9,4.648H1544.363z M1552.332,156.578h12.037
		c3.486,0,6.273-0.872,8.361-2.619c2.09-1.747,3.135-4.118,3.135-7.113c0-3.327-0.969-5.747-2.906-7.258s-4.883-2.268-8.84-2.268
		h-11.787V156.578z M1552.332,162.971v21.748h13.156c3.707,0,6.635-0.962,8.779-2.885c2.143-1.923,3.217-4.572,3.217-7.948
		c0-7.276-3.959-10.915-11.871-10.915H1552.332z"/>
	<path fill="#F2F2F2" d="M1594.043,168.365c0-4.398,0.865-8.355,2.594-11.869s4.137-6.227,7.223-8.135
		c3.084-1.91,6.605-2.864,10.563-2.864c6.113,0,11.061,2.116,14.838,6.351c3.775,4.232,5.664,9.864,5.664,16.892v0.54
		c0,4.372-0.836,8.294-2.51,11.766c-1.676,3.473-4.068,6.178-7.182,8.114c-3.111,1.938-6.689,2.905-10.729,2.905
		c-6.088,0-11.02-2.117-14.795-6.35c-3.777-4.234-5.666-9.837-5.666-16.81V168.365z M1601.762,169.279
		c0,4.98,1.156,8.979,3.467,11.994c2.311,3.017,5.402,4.523,9.275,4.523c3.902,0,7-1.528,9.297-4.586
		c2.297-3.057,3.445-7.339,3.445-12.846c0-4.924-1.17-8.916-3.508-11.974c-2.338-3.057-5.443-4.586-9.316-4.586
		c-3.791,0-6.85,1.509-9.174,4.524S1601.762,163.662,1601.762,169.279z"/>
	<path fill="#F2F2F2" d="M1644.594,134.416c0-1.246,0.381-2.297,1.143-3.154c0.76-0.857,1.889-1.287,3.383-1.287
		s2.627,0.43,3.402,1.287s1.162,1.908,1.162,3.154c0,1.244-0.387,2.282-1.162,3.112s-1.908,1.245-3.402,1.245
		s-2.623-0.415-3.383-1.245C1644.975,136.698,1644.594,135.66,1644.594,134.416z M1652.895,191.234h-7.678v-44.907h7.678V191.234z"
		/>
	<path fill="#F2F2F2" d="M1673.523,191.234h-7.678v-63.75h7.678V191.234z"/>
	<path fill="#F2F2F2" d="M1704.443,192.064c-6.086,0-11.039-1.999-14.857-5.997s-5.729-9.345-5.729-16.042v-1.41
		c0-4.455,0.852-8.433,2.553-11.933c1.703-3.5,4.082-6.239,7.139-8.218c3.059-1.979,6.371-2.968,9.941-2.968
		c5.838,0,10.375,1.924,13.613,5.769c3.236,3.847,4.855,9.354,4.855,16.52v3.195h-30.422c0.109,4.428,1.404,8.004,3.881,10.729
		c2.475,2.726,5.623,4.088,9.441,4.088c2.711,0,5.008-0.553,6.889-1.66c1.883-1.105,3.529-2.572,4.939-4.398l4.689,3.652
		C1717.615,189.174,1711.971,192.064,1704.443,192.064z M1703.49,151.806c-3.1,0-5.701,1.128-7.803,3.383
		c-2.104,2.255-3.404,5.416-3.902,9.483h22.496v-0.581c-0.223-3.901-1.273-6.924-3.154-9.068
		C1709.244,152.878,1706.699,151.806,1703.49,151.806z"/>
	<path fill="#F2F2F2" d="M1752.547,153.217c-1.162-0.193-2.422-0.291-3.777-0.291c-5.035,0-8.453,2.146-10.252,6.434v31.875h-7.678
		v-44.907h7.471l0.125,5.188c2.518-4.012,6.086-6.019,10.707-6.019c1.494,0,2.629,0.194,3.404,0.581V153.217z"/>
	<path fill="#F2F2F2" d="M1797.537,169.279c0,6.834-1.564,12.341-4.691,16.518c-3.127,4.179-7.359,6.268-12.699,6.268
		c-5.451,0-9.74-1.729-12.867-5.188V208.5h-7.678v-62.173h7.014l0.375,4.98c3.125-3.873,7.471-5.811,13.031-5.811
		c5.396,0,9.664,2.034,12.805,6.101c3.141,4.068,4.711,9.727,4.711,16.976V169.279z M1789.857,168.407
		c0-5.063-1.078-9.062-3.236-11.995c-2.158-2.932-5.119-4.398-8.883-4.398c-4.648,0-8.135,2.062-10.459,6.184v21.457
		c2.297,4.096,5.811,6.143,10.543,6.143c3.68,0,6.605-1.459,8.777-4.378S1789.857,174.163,1789.857,168.407z"/>
	<path fill="#F2F2F2" d="M1815.633,191.234h-7.678v-63.75h7.678V191.234z"/>
	<path fill="#F2F2F2" d="M1855.643,191.234c-0.443-0.885-0.803-2.462-1.078-4.731c-3.57,3.708-7.832,5.562-12.783,5.562
		c-4.428,0-8.059-1.252-10.895-3.756c-2.838-2.504-4.256-5.679-4.256-9.525c0-4.676,1.779-8.308,5.334-10.895
		s8.557-3.881,15.004-3.881h7.471v-3.527c0-2.684-0.803-4.821-2.408-6.413c-1.604-1.591-3.971-2.386-7.096-2.386
		c-2.74,0-5.037,0.691-6.891,2.074c-1.854,1.385-2.781,3.059-2.781,5.022h-7.719c0-2.241,0.795-4.406,2.387-6.495
		c1.59-2.089,3.748-3.742,6.475-4.96c2.725-1.217,5.721-1.826,8.984-1.826c5.174,0,9.229,1.294,12.162,3.881
		c2.932,2.587,4.453,6.149,4.564,10.687v20.67c0,4.123,0.525,7.401,1.578,9.836v0.664H1855.643z M1842.9,185.383
		c2.408,0,4.691-0.623,6.85-1.868s3.721-2.864,4.689-4.856v-9.213h-6.018c-9.408,0-14.111,2.753-14.111,8.259
		c0,2.407,0.801,4.289,2.406,5.645C1838.322,184.705,1840.383,185.383,1842.9,185.383z"/>
	<path fill="#F2F2F2" d="M1884.57,135.453v10.874h8.383v5.935h-8.383v27.885c0,1.801,0.373,3.151,1.121,4.052
		c0.746,0.9,2.02,1.351,3.818,1.351c0.885,0,2.102-0.166,3.652-0.498v6.188c-2.021,0.55-3.984,0.825-5.895,0.825
		c-3.432,0-6.018-1.037-7.762-3.113c-1.742-2.074-2.613-5.021-2.613-8.84v-27.85h-8.178v-5.935h8.178v-10.874H1884.57z"/>
	<path fill="#F2F2F2" d="M1920.555,192.064c-6.088,0-11.039-1.999-14.857-5.997s-5.729-9.345-5.729-16.042v-1.41
		c0-4.455,0.852-8.433,2.553-11.933s4.08-6.239,7.139-8.218c3.057-1.979,6.371-2.968,9.939-2.968c5.838,0,10.377,1.924,13.613,5.769
		c3.238,3.847,4.857,9.354,4.857,16.52v3.195h-30.424c0.111,4.428,1.404,8.004,3.881,10.729c2.477,2.726,5.625,4.088,9.443,4.088
		c2.711,0,5.006-0.553,6.889-1.66c1.881-1.105,3.527-2.572,4.939-4.398l4.689,3.652
		C1933.725,189.174,1928.08,192.064,1920.555,192.064z M1919.6,151.806c-3.1,0-5.699,1.128-7.803,3.383s-3.402,5.416-3.9,9.483
		h22.494v-0.581c-0.221-3.901-1.273-6.924-3.154-9.068S1922.809,151.806,1919.6,151.806z"/>
</g>
<g opacity="0.6" enable-background="new    ">
	<path fill="#F2F2F2" d="M784.732,266.3h-14.893l-3.345,9.302h-4.834l13.574-35.547h4.102l13.599,35.547h-4.81L784.732,266.3z
		 M771.255,262.467h12.085l-6.055-16.626L771.255,262.467z"/>
	<path fill="#F2F2F2" d="M829.703,259.903h-14.917v15.698h-4.688v-35.547h22.021v3.833h-17.334v12.183h14.917V259.903z"/>
	<path fill="#F2F2F2" d="M835.318,262.149c0-2.588,0.508-4.915,1.526-6.982c1.017-2.066,2.433-3.662,4.248-4.785
		c1.814-1.123,3.886-1.685,6.213-1.685c3.597,0,6.506,1.245,8.728,3.735s3.333,5.803,3.333,9.937v0.317
		c0,2.572-0.493,4.879-1.477,6.921c-0.985,2.043-2.393,3.635-4.224,4.773c-1.831,1.14-3.935,1.709-6.311,1.709
		c-3.581,0-6.482-1.245-8.704-3.735s-3.333-5.786-3.333-9.888V262.149z M839.859,262.687c0,2.93,0.679,5.282,2.039,7.056
		c1.359,1.774,3.178,2.661,5.457,2.661c2.295,0,4.118-0.899,5.469-2.698c1.351-1.798,2.026-4.316,2.026-7.556
		c0-2.896-0.688-5.245-2.063-7.044c-1.375-1.798-3.203-2.697-5.481-2.697c-2.23,0-4.028,0.888-5.396,2.661
		C840.542,256.844,839.859,259.383,839.859,262.687z"/>
	<path fill="#F2F2F2" d="M881.338,272.989c-1.758,2.067-4.338,3.101-7.739,3.101c-2.816,0-4.96-0.818-6.433-2.453
		c-1.473-1.637-2.218-4.057-2.234-7.264v-17.188h4.517v17.065c0,4.004,1.627,6.006,4.883,6.006c3.45,0,5.745-1.285,6.885-3.857
		v-19.214h4.517v26.416h-4.297L881.338,272.989z"/>
	<path fill="#F2F2F2" d="M896.866,249.186l0.146,3.32c2.018-2.539,4.655-3.809,7.91-3.809c5.583,0,8.398,3.149,8.447,9.448v17.456
		h-4.517v-17.48c-0.017-1.904-0.452-3.312-1.306-4.224c-0.854-0.911-2.185-1.367-3.992-1.367c-1.465,0-2.751,0.391-3.857,1.172
		c-1.107,0.781-1.97,1.807-2.588,3.076v18.823h-4.517v-26.416H896.866z"/>
	<path fill="#F2F2F2" d="M919.083,262.174c0-4.053,0.96-7.313,2.881-9.777c1.92-2.467,4.435-3.699,7.544-3.699
		c3.092,0,5.542,1.059,7.349,3.174v-13.77h4.517v37.5h-4.15l-0.22-2.832c-1.807,2.214-4.321,3.32-7.544,3.32
		c-3.06,0-5.554-1.253-7.483-3.76c-1.929-2.506-2.893-5.777-2.893-9.814V262.174z M923.599,262.687c0,2.995,0.618,5.339,1.855,7.031
		c1.237,1.693,2.946,2.539,5.127,2.539c2.864,0,4.956-1.285,6.274-3.857v-12.134c-1.351-2.49-3.426-3.735-6.226-3.735
		c-2.214,0-3.939,0.854-5.176,2.563C924.217,256.803,923.599,259.334,923.599,262.687z"/>
	<path fill="#F2F2F2" d="M964.688,275.602c-0.261-0.521-0.472-1.448-0.635-2.783c-2.1,2.182-4.606,3.271-7.52,3.271
		c-2.604,0-4.741-0.736-6.409-2.209c-1.668-1.474-2.502-3.341-2.502-5.604c0-2.75,1.045-4.887,3.137-6.408
		c2.091-1.522,5.033-2.283,8.826-2.283h4.395v-2.075c0-1.578-0.472-2.836-1.416-3.772c-0.944-0.936-2.336-1.403-4.175-1.403
		c-1.611,0-2.962,0.407-4.053,1.221c-1.091,0.814-1.636,1.799-1.636,2.954h-4.541c0-1.318,0.468-2.592,1.404-3.82
		c0.936-1.229,2.205-2.201,3.809-2.918c1.603-0.716,3.365-1.074,5.286-1.074c3.043,0,5.428,0.761,7.153,2.283
		c1.725,1.521,2.62,3.617,2.686,6.286v12.158c0,2.426,0.309,4.354,0.928,5.786v0.391H964.688z M957.193,272.159
		c1.416,0,2.759-0.366,4.028-1.099s2.189-1.685,2.759-2.856v-5.42h-3.54c-5.534,0-8.301,1.62-8.301,4.858
		c0,1.416,0.472,2.523,1.416,3.32C954.499,271.761,955.711,272.159,957.193,272.159z"/>
	<path fill="#F2F2F2" d="M981.705,242.789v6.396h4.932v3.491h-4.932v16.402c0,1.06,0.22,1.854,0.659,2.384s1.188,0.794,2.246,0.794
		c0.521,0,1.237-0.098,2.148-0.293v3.641c-1.188,0.323-2.344,0.485-3.467,0.485c-2.019,0-3.54-0.61-4.565-1.831
		s-1.538-2.954-1.538-5.2v-16.382h-4.81v-3.491h4.81v-6.396H981.705z"/>
	<path fill="#F2F2F2" d="M991.934,242.179c0-0.732,0.224-1.351,0.671-1.855c0.447-0.504,1.111-0.757,1.99-0.757
		s1.546,0.253,2.002,0.757c0.456,0.505,0.684,1.123,0.684,1.855s-0.228,1.343-0.684,1.831c-0.456,0.488-1.123,0.732-2.002,0.732
		s-1.542-0.244-1.99-0.732C992.158,243.521,991.934,242.911,991.934,242.179z M996.817,275.602H992.3v-26.416h4.517V275.602z"/>
	<path fill="#F2F2F2" d="M1002.847,262.149c0-2.588,0.508-4.915,1.526-6.982c1.017-2.066,2.433-3.662,4.248-4.785
		c1.814-1.123,3.886-1.685,6.213-1.685c3.597,0,6.506,1.245,8.728,3.735s3.333,5.803,3.333,9.937v0.317
		c0,2.572-0.493,4.879-1.477,6.921c-0.985,2.043-2.393,3.635-4.224,4.773c-1.831,1.14-3.935,1.709-6.311,1.709
		c-3.581,0-6.482-1.245-8.704-3.735s-3.333-5.786-3.333-9.888V262.149z M1007.388,262.687c0,2.93,0.679,5.282,2.039,7.056
		c1.359,1.774,3.178,2.661,5.457,2.661c2.295,0,4.118-0.899,5.469-2.698c1.351-1.798,2.026-4.316,2.026-7.556
		c0-2.896-0.688-5.245-2.063-7.044c-1.375-1.798-3.203-2.697-5.481-2.697c-2.23,0-4.028,0.888-5.396,2.661
		C1008.072,256.844,1007.388,259.383,1007.388,262.687z"/>
	<path fill="#F2F2F2" d="M1036.832,249.186l0.146,3.32c2.018-2.539,4.655-3.809,7.91-3.809c5.583,0,8.398,3.149,8.447,9.448v17.456
		h-4.517v-17.48c-0.017-1.904-0.452-3.312-1.306-4.224c-0.854-0.911-2.185-1.367-3.992-1.367c-1.465,0-2.751,0.391-3.857,1.172
		c-1.107,0.781-1.97,1.807-2.588,3.076v18.823h-4.517v-26.416H1036.832z"/>
	<path fill="#F2F2F2" d="M1074.747,275.602v-22.925h-4.175v-3.491h4.175v-2.71c0-2.832,0.757-5.021,2.271-6.567
		c1.514-1.546,3.653-2.319,6.421-2.319c1.041,0,2.075,0.138,3.101,0.412l-0.244,3.641c-0.766-0.146-1.579-0.22-2.441-0.22
		c-1.465,0-2.597,0.429-3.394,1.286c-0.798,0.857-1.196,2.086-1.196,3.686v2.792h5.64v3.491h-5.64v22.925H1074.747z"/>
	<path fill="#F2F2F2" d="M1088.687,262.149c0-2.588,0.509-4.915,1.526-6.982c1.017-2.066,2.433-3.662,4.248-4.785
		c1.814-1.123,3.885-1.685,6.213-1.685c3.597,0,6.506,1.245,8.729,3.735c2.221,2.49,3.332,5.803,3.332,9.937v0.317
		c0,2.572-0.492,4.879-1.477,6.921c-0.985,2.043-2.393,3.635-4.225,4.773c-1.83,1.14-3.935,1.709-6.311,1.709
		c-3.581,0-6.482-1.245-8.703-3.735c-2.223-2.49-3.333-5.786-3.333-9.888V262.149z M1093.228,262.687c0,2.93,0.68,5.282,2.038,7.056
		c1.359,1.774,3.178,2.661,5.457,2.661c2.295,0,4.117-0.899,5.469-2.698c1.351-1.798,2.026-4.316,2.026-7.556
		c0-2.896-0.688-5.245-2.063-7.044c-1.375-1.798-3.202-2.697-5.48-2.697c-2.23,0-4.028,0.888-5.396,2.661
		C1093.912,256.844,1093.228,259.383,1093.228,262.687z"/>
	<path fill="#F2F2F2" d="M1131.167,253.238c-0.684-0.113-1.425-0.171-2.222-0.171c-2.963,0-4.973,1.262-6.03,3.784v18.75h-4.517
		v-26.416h4.395l0.073,3.052c1.48-2.359,3.58-3.54,6.299-3.54c0.879,0,1.546,0.114,2.002,0.342V253.238z"/>
	<path fill="#F2F2F2" d="M1168.496,259.171h-15.405v12.598h17.895v3.833h-22.583v-35.547h22.338v3.833h-17.651v11.45h15.405V259.171
		z"/>
	<path fill="#F2F2F2" d="M1192.422,275.602c-0.26-0.521-0.473-1.448-0.635-2.783c-2.1,2.182-4.605,3.271-7.52,3.271
		c-2.604,0-4.74-0.736-6.408-2.209c-1.668-1.474-2.502-3.341-2.502-5.604c0-2.75,1.045-4.887,3.137-6.408
		c2.092-1.522,5.033-2.283,8.826-2.283h4.395v-2.075c0-1.578-0.473-2.836-1.416-3.772c-0.945-0.936-2.336-1.403-4.176-1.403
		c-1.611,0-2.963,0.407-4.053,1.221c-1.09,0.814-1.635,1.799-1.635,2.954h-4.541c0-1.318,0.467-2.592,1.402-3.82
		c0.938-1.229,2.207-2.201,3.809-2.918c1.604-0.716,3.365-1.074,5.287-1.074c3.043,0,5.428,0.761,7.152,2.283
		c1.725,1.521,2.621,3.617,2.686,6.286v12.158c0,2.426,0.309,4.354,0.928,5.786v0.391H1192.422z M1184.928,272.159
		c1.416,0,2.758-0.366,4.027-1.099s2.189-1.685,2.76-2.856v-5.42h-3.541c-5.533,0-8.301,1.62-8.301,4.858
		c0,1.416,0.473,2.523,1.416,3.32C1182.232,271.761,1183.445,272.159,1184.928,272.159z"/>
	<path fill="#F2F2F2" d="M1218.691,268.595c0-1.221-0.459-2.169-1.379-2.845c-0.92-0.675-2.523-1.257-4.811-1.745
		c-2.285-0.488-4.102-1.074-5.443-1.758c-1.344-0.684-2.336-1.497-2.979-2.441c-0.643-0.943-0.965-2.066-0.965-3.369
		c0-2.164,0.916-3.995,2.746-5.493c1.832-1.497,4.172-2.246,7.02-2.246c2.994,0,5.424,0.773,7.287,2.319
		c1.865,1.547,2.797,3.524,2.797,5.933h-4.541c0-1.236-0.525-2.303-1.576-3.198c-1.049-0.895-2.371-1.343-3.967-1.343
		c-1.645,0-2.93,0.358-3.857,1.074c-0.928,0.717-1.391,1.652-1.391,2.808c0,1.091,0.43,1.913,1.293,2.466
		c0.863,0.554,2.422,1.083,4.676,1.587c2.254,0.505,4.08,1.107,5.48,1.807c1.4,0.7,2.438,1.542,3.113,2.526
		c0.676,0.985,1.014,2.186,1.014,3.602c0,2.36-0.945,4.252-2.832,5.676c-1.889,1.425-4.338,2.137-7.35,2.137
		c-2.115,0-3.988-0.375-5.615-1.123s-2.9-1.795-3.82-3.137c-0.92-1.344-1.379-2.796-1.379-4.358h4.516
		c0.082,1.514,0.688,2.714,1.818,3.601c1.133,0.888,2.625,1.331,4.48,1.331c1.709,0,3.08-0.346,4.113-1.038
		C1218.176,270.674,1218.691,269.751,1218.691,268.595z"/>
	<path fill="#F2F2F2" d="M1237.734,268.985l6.152-19.8h4.834l-10.619,30.493c-1.645,4.395-4.258,6.592-7.838,6.592l-0.854-0.073
		l-1.686-0.317v-3.662l1.221,0.098c1.529,0,2.723-0.31,3.576-0.928c0.855-0.619,1.559-1.75,2.113-3.394l1-2.686l-9.424-26.123h4.932
		L1237.734,268.985z"/>
	<path fill="#F2F2F2" d="M1271.256,242.789v6.396h4.932v3.491h-4.932v16.402c0,1.06,0.219,1.854,0.658,2.384
		s1.188,0.794,2.246,0.794c0.521,0,1.236-0.098,2.148-0.293v3.641c-1.188,0.323-2.344,0.485-3.467,0.485
		c-2.018,0-3.539-0.61-4.564-1.831s-1.539-2.954-1.539-5.2v-16.382h-4.809v-3.491h4.809v-6.396H1271.256z"/>
	<path fill="#F2F2F2" d="M1279.775,262.149c0-2.588,0.51-4.915,1.527-6.982c1.016-2.066,2.432-3.662,4.248-4.785
		c1.814-1.123,3.885-1.685,6.213-1.685c3.596,0,6.506,1.245,8.729,3.735c2.221,2.49,3.332,5.803,3.332,9.937v0.317
		c0,2.572-0.492,4.879-1.477,6.921c-0.986,2.043-2.393,3.635-4.225,4.773c-1.83,1.14-3.936,1.709-6.311,1.709
		c-3.582,0-6.482-1.245-8.703-3.735c-2.223-2.49-3.334-5.786-3.334-9.888V262.149z M1284.316,262.687c0,2.93,0.68,5.282,2.039,7.056
		c1.359,1.774,3.178,2.661,5.457,2.661c2.295,0,4.117-0.899,5.469-2.698c1.35-1.798,2.025-4.316,2.025-7.556
		c0-2.896-0.688-5.245-2.063-7.044c-1.375-1.798-3.203-2.697-5.48-2.697c-2.23,0-4.029,0.888-5.396,2.661
		C1285,256.844,1284.316,259.383,1284.316,262.687z"/>
	<path fill="#F2F2F2" d="M1322.574,275.602v-35.547h10.033c3.092,0,5.826,0.684,8.203,2.051s4.211,3.313,5.506,5.835
		c1.293,2.523,1.949,5.42,1.965,8.691v2.271c0,3.354-0.646,6.291-1.941,8.813c-1.293,2.523-3.141,4.46-5.541,5.811
		c-2.4,1.352-5.197,2.043-8.387,2.075H1322.574z M1327.262,243.888v27.881h4.932c3.613,0,6.424-1.124,8.434-3.372
		c2.012-2.248,3.016-5.449,3.016-9.604v-2.077c0-4.039-0.947-7.18-2.844-9.419c-1.896-2.24-4.586-3.376-8.068-3.409H1327.262z"/>
	<path fill="#F2F2F2" d="M1365.615,276.09c-3.58,0-6.494-1.176-8.74-3.527c-2.246-2.353-3.369-5.497-3.369-9.437v-0.83
		c0-2.62,0.502-4.96,1.502-7.019c1.002-2.06,2.4-3.671,4.199-4.834c1.799-1.164,3.748-1.746,5.848-1.746
		c3.434,0,6.104,1.132,8.008,3.394c1.904,2.263,2.855,5.502,2.855,9.717v1.88h-17.895c0.064,2.604,0.826,4.708,2.283,6.311
		c1.455,1.604,3.307,2.405,5.553,2.405c1.596,0,2.945-0.325,4.053-0.977c1.107-0.65,2.076-1.514,2.906-2.588l2.758,2.148
		C1373.363,274.39,1370.043,276.09,1365.615,276.09z M1365.055,252.408c-1.824,0-3.354,0.663-4.59,1.99
		c-1.238,1.326-2.002,3.186-2.295,5.578h13.232v-0.342c-0.131-2.295-0.75-4.073-1.855-5.334
		C1368.439,253.039,1366.941,252.408,1365.055,252.408z"/>
	<path fill="#F2F2F2" d="M1389.541,269.474l6.543-20.288h4.615l-9.473,26.416h-3.443l-9.57-26.416h4.615L1389.541,269.474z"/>
	<path fill="#F2F2F2" d="M1415.689,276.09c-3.582,0-6.494-1.176-8.74-3.527c-2.246-2.353-3.369-5.497-3.369-9.437v-0.83
		c0-2.62,0.5-4.96,1.5-7.019c1.002-2.06,2.402-3.671,4.199-4.834c1.799-1.164,3.748-1.746,5.848-1.746
		c3.434,0,6.104,1.132,8.008,3.394c1.904,2.263,2.857,5.502,2.857,9.717v1.88h-17.896c0.064,2.604,0.826,4.708,2.283,6.311
		c1.457,1.604,3.309,2.405,5.555,2.405c1.594,0,2.945-0.325,4.053-0.977c1.105-0.65,2.074-1.514,2.904-2.588l2.76,2.148
		C1423.436,274.39,1420.115,276.09,1415.689,276.09z M1415.127,252.408c-1.822,0-3.354,0.663-4.59,1.99
		c-1.236,1.326-2.002,3.186-2.295,5.578h13.232v-0.342c-0.131-2.295-0.748-4.073-1.855-5.334
		C1418.512,253.039,1417.016,252.408,1415.127,252.408z"/>
	<path fill="#F2F2F2" d="M1436.123,275.602h-4.516v-37.5h4.516V275.602z"/>
	<path fill="#F2F2F2" d="M1442.154,262.149c0-2.588,0.508-4.915,1.525-6.982c1.018-2.066,2.434-3.662,4.248-4.785
		s3.885-1.685,6.213-1.685c3.598,0,6.506,1.245,8.729,3.735c2.221,2.49,3.332,5.803,3.332,9.937v0.317
		c0,2.572-0.492,4.879-1.477,6.921c-0.984,2.043-2.393,3.635-4.225,4.773c-1.83,1.14-3.934,1.709-6.311,1.709
		c-3.58,0-6.482-1.245-8.703-3.735c-2.223-2.49-3.332-5.786-3.332-9.888V262.149z M1446.695,262.687c0,2.93,0.68,5.282,2.037,7.056
		c1.359,1.774,3.178,2.661,5.457,2.661c2.295,0,4.117-0.899,5.469-2.698c1.352-1.798,2.027-4.316,2.027-7.556
		c0-2.896-0.688-5.245-2.064-7.044c-1.375-1.798-3.201-2.697-5.48-2.697c-2.23,0-4.027,0.888-5.395,2.661
		C1447.379,256.844,1446.695,259.383,1446.695,262.687z"/>
	<path fill="#F2F2F2" d="M1494.18,262.687c0,4.021-0.92,7.26-2.758,9.717c-1.84,2.458-4.33,3.687-7.471,3.687
		c-3.207,0-5.73-1.017-7.568-3.052v12.72h-4.518v-36.572h4.127l0.219,2.93c1.84-2.278,4.395-3.418,7.666-3.418
		c3.174,0,5.686,1.196,7.531,3.589c1.848,2.393,2.771,5.722,2.771,9.985V262.687z M1489.664,262.174c0-2.979-0.635-5.33-1.904-7.056
		c-1.27-1.725-3.012-2.588-5.225-2.588c-2.734,0-4.785,1.213-6.152,3.638v12.622c1.35,2.409,3.418,3.613,6.201,3.613
		c2.164,0,3.885-0.858,5.162-2.575C1489.025,268.11,1489.664,265.56,1489.664,262.174z"/>
	<path fill="#F2F2F2" d="M1511.344,266.056c0-1.709,0.475-3.279,1.428-4.712c0.951-1.432,2.771-3.101,5.457-5.005
		c-1.58-1.92-2.637-3.467-3.174-4.639s-0.807-2.335-0.807-3.491c0-2.701,0.797-4.817,2.393-6.348
		c1.596-1.529,3.76-2.295,6.494-2.295c2.441,0,4.459,0.712,6.055,2.137c1.596,1.424,2.393,3.219,2.393,5.383
		c0,1.433-0.361,2.755-1.086,3.967c-0.725,1.213-1.99,2.487-3.797,3.821l-2.611,1.929l7.91,9.448c1.105-2.115,1.66-4.468,1.66-7.056
		h4.076c0,4.15-1,7.593-3.002,10.327l5.078,6.079h-5.42l-2.369-2.808c-1.205,1.074-2.615,1.892-4.236,2.454
		c-1.619,0.561-3.268,0.842-4.943,0.842c-3.467,0-6.25-0.919-8.35-2.759C1512.393,271.492,1511.344,269.067,1511.344,266.056z
		 M1522.842,272.403c2.393,0,4.582-0.911,6.568-2.734l-8.668-10.376l-0.805,0.586c-2.719,2.002-4.078,4.062-4.078,6.177
		c0,1.921,0.623,3.459,1.867,4.614C1518.973,271.826,1520.678,272.403,1522.842,272.403z M1518.766,248.063
		c0,1.563,0.959,3.516,2.881,5.859l2.881-2.026c1.105-0.781,1.863-1.526,2.27-2.233c0.406-0.709,0.611-1.566,0.611-2.576
		c0-1.09-0.408-1.998-1.221-2.723c-0.814-0.724-1.84-1.086-3.076-1.086c-1.336,0-2.393,0.451-3.174,1.355
		C1519.156,245.535,1518.766,246.68,1518.766,248.063z"/>
	<path fill="#F2F2F2" d="M1556.461,275.602v-35.547h10.033c3.092,0,5.826,0.684,8.203,2.051s4.211,3.313,5.506,5.835
		c1.293,2.523,1.949,5.42,1.965,8.691v2.271c0,3.354-0.646,6.291-1.941,8.813c-1.293,2.523-3.141,4.46-5.541,5.811
		c-2.4,1.352-5.197,2.043-8.387,2.075H1556.461z M1561.148,243.888v27.881h4.932c3.613,0,6.424-1.124,8.434-3.372
		c2.012-2.248,3.016-5.449,3.016-9.604v-2.077c0-4.039-0.947-7.18-2.844-9.419c-1.896-2.24-4.586-3.376-8.068-3.409H1561.148z"/>
	<path fill="#F2F2F2" d="M1599.502,276.09c-3.58,0-6.494-1.176-8.74-3.527c-2.246-2.353-3.369-5.497-3.369-9.437v-0.83
		c0-2.62,0.502-4.96,1.502-7.019c1.002-2.06,2.4-3.671,4.199-4.834c1.799-1.164,3.748-1.746,5.848-1.746
		c3.434,0,6.104,1.132,8.008,3.394c1.904,2.263,2.855,5.502,2.855,9.717v1.88h-17.895c0.064,2.604,0.826,4.708,2.283,6.311
		c1.455,1.604,3.307,2.405,5.553,2.405c1.596,0,2.945-0.325,4.053-0.977c1.107-0.65,2.076-1.514,2.906-2.588l2.758,2.148
		C1607.25,274.39,1603.93,276.09,1599.502,276.09z M1598.941,252.408c-1.824,0-3.354,0.663-4.59,1.99
		c-1.238,1.326-2.002,3.186-2.295,5.578h13.232v-0.342c-0.131-2.295-0.75-4.073-1.855-5.334
		C1602.326,253.039,1600.828,252.408,1598.941,252.408z"/>
	<path fill="#F2F2F2" d="M1637.344,262.687c0,4.021-0.92,7.26-2.758,9.717c-1.84,2.458-4.33,3.687-7.471,3.687
		c-3.207,0-5.73-1.017-7.568-3.052v12.72h-4.518v-36.572h4.127l0.219,2.93c1.84-2.278,4.395-3.418,7.666-3.418
		c3.174,0,5.686,1.196,7.531,3.589c1.848,2.393,2.771,5.722,2.771,9.985V262.687z M1632.828,262.174c0-2.979-0.635-5.33-1.904-7.056
		c-1.27-1.725-3.012-2.588-5.225-2.588c-2.734,0-4.785,1.213-6.152,3.638v12.622c1.35,2.409,3.418,3.613,6.201,3.613
		c2.164,0,3.885-0.858,5.162-2.575C1632.189,268.11,1632.828,265.56,1632.828,262.174z"/>
	<path fill="#F2F2F2" d="M1647.988,275.602h-4.516v-37.5h4.516V275.602z"/>
	<path fill="#F2F2F2" d="M1654.02,262.149c0-2.588,0.508-4.915,1.525-6.982c1.018-2.066,2.434-3.662,4.248-4.785
		s3.885-1.685,6.213-1.685c3.598,0,6.506,1.245,8.729,3.735c2.221,2.49,3.332,5.803,3.332,9.937v0.317
		c0,2.572-0.492,4.879-1.477,6.921c-0.984,2.043-2.393,3.635-4.225,4.773c-1.83,1.14-3.934,1.709-6.311,1.709
		c-3.58,0-6.482-1.245-8.703-3.735c-2.223-2.49-3.332-5.786-3.332-9.888V262.149z M1658.561,262.687c0,2.93,0.68,5.282,2.037,7.056
		c1.359,1.774,3.178,2.661,5.457,2.661c2.295,0,4.117-0.899,5.469-2.698c1.352-1.798,2.027-4.316,2.027-7.556
		c0-2.896-0.688-5.245-2.064-7.044c-1.375-1.798-3.201-2.697-5.48-2.697c-2.23,0-4.027,0.888-5.395,2.661
		C1659.244,256.844,1658.561,259.383,1658.561,262.687z"/>
	<path fill="#F2F2F2" d="M1692.008,268.985l6.152-19.8h4.834l-10.621,30.493c-1.645,4.395-4.256,6.592-7.836,6.592l-0.855-0.073
		l-1.684-0.317v-3.662l1.221,0.098c1.529,0,2.723-0.31,3.576-0.928c0.855-0.619,1.559-1.75,2.111-3.394l1.002-2.686l-9.424-26.123
		h4.932L1692.008,268.985z"/>
	<path fill="#F2F2F2" d="M1727.773,264.396l0.684,4.688l1.002-4.224l7.031-24.805h3.955l6.859,24.805l0.977,4.297l0.758-4.785
		l5.518-24.316h4.711l-8.617,35.547h-4.273l-7.324-25.903l-0.561-2.71l-0.563,2.71l-7.592,25.903h-4.273l-8.594-35.547h4.688
		L1727.773,264.396z"/>
	<path fill="#F2F2F2" d="M1773.965,276.09c-3.58,0-6.494-1.176-8.74-3.527c-2.246-2.353-3.369-5.497-3.369-9.437v-0.83
		c0-2.62,0.502-4.96,1.502-7.019c1.002-2.06,2.4-3.671,4.199-4.834c1.799-1.164,3.748-1.746,5.848-1.746
		c3.434,0,6.104,1.132,8.008,3.394c1.904,2.263,2.855,5.502,2.855,9.717v1.88h-17.895c0.064,2.604,0.826,4.708,2.283,6.311
		c1.455,1.604,3.307,2.405,5.553,2.405c1.596,0,2.945-0.325,4.053-0.977c1.107-0.65,2.076-1.514,2.906-2.588l2.758,2.148
		C1781.713,274.39,1778.393,276.09,1773.965,276.09z M1773.404,252.408c-1.824,0-3.354,0.663-4.59,1.99
		c-1.238,1.326-2.002,3.186-2.295,5.578h13.232v-0.342c-0.131-2.295-0.75-4.073-1.855-5.334
		C1776.789,253.039,1775.291,252.408,1773.404,252.408z"/>
	<path fill="#F2F2F2" d="M1811.855,262.687c0,4.037-0.928,7.279-2.783,9.729c-1.855,2.449-4.346,3.674-7.471,3.674
		c-3.336,0-5.916-1.18-7.738-3.54l-0.221,3.052h-4.15v-37.5h4.518v13.989c1.822-2.262,4.336-3.394,7.543-3.394
		s5.725,1.213,7.557,3.638c1.83,2.426,2.746,5.746,2.746,9.961V262.687z M1807.34,262.174c0-3.076-0.596-5.452-1.783-7.129
		c-1.188-1.676-2.896-2.515-5.127-2.515c-2.979,0-5.119,1.384-6.42,4.15v11.426c1.383,2.768,3.539,4.15,6.469,4.15
		c2.164,0,3.85-0.838,5.055-2.515C1806.736,268.066,1807.34,265.543,1807.34,262.174z"/>
	<path fill="#F2F2F2" d="M1850.26,266.3h-14.893l-3.346,9.302h-4.834l13.574-35.547h4.102l13.6,35.547h-4.811L1850.26,266.3z
		 M1836.783,262.467h12.084l-6.055-16.626L1836.783,262.467z"/>
	<path fill="#F2F2F2" d="M1884.854,262.687c0,4.021-0.92,7.26-2.758,9.717c-1.84,2.458-4.33,3.687-7.471,3.687
		c-3.207,0-5.73-1.017-7.568-3.052v12.72h-4.518v-36.572h4.127l0.219,2.93c1.84-2.278,4.395-3.418,7.666-3.418
		c3.174,0,5.686,1.196,7.531,3.589c1.848,2.393,2.771,5.722,2.771,9.985V262.687z M1880.338,262.174c0-2.979-0.635-5.33-1.904-7.056
		c-1.27-1.725-3.012-2.588-5.225-2.588c-2.734,0-4.785,1.213-6.152,3.638v12.622c1.35,2.409,3.418,3.613,6.201,3.613
		c2.164,0,3.885-0.858,5.162-2.575C1879.699,268.11,1880.338,265.56,1880.338,262.174z"/>
	<path fill="#F2F2F2" d="M1912.906,262.687c0,4.021-0.92,7.26-2.76,9.717c-1.84,2.458-4.33,3.687-7.471,3.687
		c-3.207,0-5.729-1.017-7.568-3.052v12.72h-4.516v-36.572h4.125l0.221,2.93c1.838-2.278,4.395-3.418,7.666-3.418
		c3.174,0,5.684,1.196,7.531,3.589s2.771,5.722,2.771,9.985V262.687z M1908.389,262.174c0-2.979-0.635-5.33-1.904-7.056
		c-1.27-1.725-3.012-2.588-5.225-2.588c-2.734,0-4.785,1.213-6.152,3.638v12.622c1.352,2.409,3.418,3.613,6.201,3.613
		c2.164,0,3.887-0.858,5.164-2.575C1907.75,268.11,1908.389,265.56,1908.389,262.174z"/>
	<path fill="#F2F2F2" d="M1934.023,268.595c0-1.221-0.459-2.169-1.379-2.845c-0.92-0.675-2.523-1.257-4.811-1.745
		c-2.285-0.488-4.102-1.074-5.443-1.758c-1.344-0.684-2.336-1.497-2.979-2.441c-0.643-0.943-0.965-2.066-0.965-3.369
		c0-2.164,0.916-3.995,2.746-5.493c1.832-1.497,4.172-2.246,7.02-2.246c2.994,0,5.424,0.773,7.287,2.319
		c1.865,1.547,2.797,3.524,2.797,5.933h-4.541c0-1.236-0.525-2.303-1.576-3.198c-1.049-0.895-2.371-1.343-3.967-1.343
		c-1.645,0-2.93,0.358-3.857,1.074c-0.928,0.717-1.391,1.652-1.391,2.808c0,1.091,0.43,1.913,1.293,2.466
		c0.863,0.554,2.422,1.083,4.676,1.587c2.254,0.505,4.08,1.107,5.48,1.807c1.4,0.7,2.438,1.542,3.113,2.526
		c0.676,0.985,1.014,2.186,1.014,3.602c0,2.36-0.945,4.252-2.832,5.676c-1.889,1.425-4.338,2.137-7.35,2.137
		c-2.115,0-3.988-0.375-5.615-1.123s-2.9-1.795-3.82-3.137c-0.92-1.344-1.379-2.796-1.379-4.358h4.516
		c0.082,1.514,0.688,2.714,1.818,3.601c1.133,0.888,2.625,1.331,4.48,1.331c1.709,0,3.08-0.346,4.113-1.038
		C1933.508,270.674,1934.023,269.751,1934.023,268.595z"/>
</g>
</svg>
