<?xml version="1.0" encoding="utf-8"?>
<!-- Generator: Adobe Illustrator 16.0.2, SVG Export Plug-In . SVG Version: 6.00 Build 0)  -->
<!DOCTYPE svg PUBLIC "-//W3C//DTD SVG 1.1//EN" "http://www.w3.org/Graphics/SVG/1.1/DTD/svg11.dtd">
<svg version="1.1" id="Layer_1" xmlns="http://www.w3.org/2000/svg" xmlns:xlink="http://www.w3.org/1999/xlink" x="0px" y="0px"
	 width="569px" height="512px" viewBox="0 0 569 512" enable-background="new 0 0 569 512" xml:space="preserve">
<g>
	<g>
		<g>
			<path fill="#24292F" d="M371.95,280.4c-3.65,7.25-7.53,14.488-11.66,21.67c-4.18,7.279-8.51,14.279-12.97,21.01
				c11.739-2.02,23.34-4.82,34.72-8.37C379.43,303.07,376.06,291.609,371.95,280.4z"/>
		</g>
	</g>
	<g>
		<g>
			<path fill="#24292F" d="M208.69,302.07c-4.2-7.189-8.07-14.449-11.67-21.709c-4.11,11.22-7.48,22.699-10.09,34.35
				c11.38,3.54,22.98,6.33,34.73,8.35C217.23,316.34,212.9,309.25,208.69,302.07z"/>
		</g>
	</g>
	<g>
		<g>
			<path fill="#24292F" d="M347.23,193.4c4.488,6.73,8.828,13.74,13.038,21.02l0.012,0.02c4.189,7.18,8.069,14.43,11.68,21.69
				c4.1-11.22,7.46-22.69,10.08-34.35C370.63,198.23,359,195.42,347.23,193.4z"/>
		</g>
	</g>
	<g>
		<g>
			<path fill="#24292F" d="M367.731,114.09c-4.762-2.63-10.142-3.95-15.57-3.82h-0.021c-14.93,0-33.97,8.15-54.249,23.83
				c12.919,12.15,24.771,25.38,35.431,39.55c17.58,2.14,34.938,5.79,51.898,10.89c0.311-2.21,0.57-4.42,0.79-6.6
				C389.26,145.94,382.59,122.67,367.731,114.09z"/>
		</g>
	</g>
	<g>
		<g>
			<path fill="#24292F" d="M186.96,201.9c2.6,11.58,5.95,22.99,10.03,34.14c3.65-7.24,7.47-14.39,11.64-21.62
				c4.19-7.25,8.54-14.21,12.97-20.92C209.89,195.55,198.31,198.35,186.96,201.9z"/>
		</g>
	</g>
	<g>
		<g>
			<path fill="#24292F" d="M398.72,207.78c-4.09,17.26-9.63,34.14-16.56,50.47c6.938,16.311,12.479,33.189,16.57,50.439l-0.03,0.021
				c33.069-13.56,52.229-32.36,52.229-50.46C450.93,240.14,431.71,221.34,398.72,207.78z"/>
		</g>
	</g>
	<g>
		<g>
			<path fill="#24292F" d="M386,338.54h0.04c-0.22-2.181-0.48-4.37-0.79-6.601c-16.96,5.101-34.33,8.75-51.91,10.891
				c-10.649,14.17-22.5,27.41-35.41,39.57c28.261,21.85,54.11,29.08,69.79,19.989C382.571,393.811,389.241,370.54,386,338.54z"/>
		</g>
	</g>
	<g>
		<g>
			<path fill="#24292F" d="M284.42,145.4c-8.78,8.1-17.01,16.77-24.65,25.96c8.1-0.52,16.31-0.78,24.65-0.78
				c8.41,0,16.65,0.28,24.72,0.78C301.48,162.17,293.221,153.5,284.42,145.4z"/>
		</g>
	</g>
	<g>
		<g>
			<path fill="#24292F" d="M284.5,8.729c-137.807,0-249.521,111.714-249.521,249.521S146.693,507.771,284.5,507.771
				S534.021,396.057,534.021,258.25S422.307,8.729,284.5,8.729z M402.03,326.13c0.54,3.601,1.028,7.16,1.39,10.649
				c4.021,39.74-5.56,68.431-26.96,80.791c-7.35,4.17-15.69,6.3-24.14,6.18c-20.302,0-43.98-10.67-67.83-29.75
				c-23.87,19.08-47.53,29.75-67.8,29.75c-8.46,0.12-16.79-2.01-24.15-6.18c-21.4-12.36-30.98-41.051-26.95-80.791
				c0.35-3.489,0.83-7.049,1.39-10.649c-40.79-15.96-66.4-40.22-66.4-67.88c0-24.72,20.04-47.38,56.46-63.75
				c3.2-1.44,6.54-2.82,9.93-4.12c-0.55-3.6-1.03-7.17-1.38-10.66c-4.03-39.75,5.55-68.439,26.95-80.79
				c23.94-13.83,57.75-3.79,91.95,23.57c34.188-27.36,68.01-37.4,91.95-23.57c21.39,12.35,30.97,41.04,26.948,80.79
				c-0.35,3.49-0.85,7.04-1.39,10.64c40.781,15.97,66.401,40.22,66.401,67.89h0.02C468.42,285.9,442.81,310.2,402.03,326.13z"/>
		</g>
	</g>
	<g>
		<g>
			<path fill="#24292F" d="M284.5,345.9c-8.34,0-16.58-0.28-24.65-0.78c7.64,9.19,15.87,17.86,24.65,25.96
				c8.8-8.1,17.05-16.771,24.72-25.96C301.141,345.62,292.84,345.9,284.5,345.9z"/>
		</g>
	</g>
	<g>
		<g>
			<path fill="#24292F" d="M216.85,110.28c-5.43-0.12-10.8,1.2-15.57,3.82c-14.84,8.58-21.55,31.87-18.27,63.85h-0.04
				c0.21,2.18,0.48,4.38,0.78,6.59c16.97-5.07,34.33-8.7,51.91-10.85c10.66-14.18,22.52-27.42,35.45-39.57
				C250.83,118.44,231.79,110.28,216.85,110.28z"/>
		</g>
	</g>
	<g>
		<g>
			<path fill="#24292F" d="M170.33,207.88c-2.07,0.87-4.11,1.73-6.11,2.6c-29.26,13.2-46.13,30.61-46.13,47.77
				c0,18.1,19.17,36.9,52.23,50.46c4.08-17.26,9.62-34.14,16.56-50.46C179.95,241.96,174.42,225.11,170.33,207.88z"/>
		</g>
	</g>
	<g>
		<g>
			<path fill="#24292F" d="M235.7,342.83c-17.58-2.141-34.95-5.79-51.91-10.891c-0.3,2.229-0.57,4.42-0.78,6.601
				c-3.28,31.989,3.43,55.271,18.27,63.85h0.04c15.69,9.061,41.53,1.86,69.8-19.989C258.21,370.24,246.36,357,235.7,342.83z"/>
		</g>
	</g>
</g>
</svg>
